<svg width="15" height="15" viewBox="0 0 15 15" fill="none" xmlns="http://www.w3.org/2000/svg">
  <g clip-path="url(#clip0_224_4)">
    <path
      d="M13.8281 0H1.17188C0.524666 0 0 0.524666 0 1.17188V13.8281C0 14.4753 0.524666 15 1.17188 15H13.8281C14.4753 15 15 14.4753 15 13.8281V1.17188C15 0.524666 14.4753 0 13.8281 0Z"
      fill="#3178C6" />
    <path fill-rule="evenodd" clip-rule="evenodd"
      d="M8.81941 11.7466V13.3649C9.08262 13.4998 9.39393 13.601 9.75328 13.6684C10.1126 13.7358 10.4914 13.7695 10.8896 13.7695C11.2776 13.7695 11.6463 13.7324 11.9955 13.6583C12.3447 13.5841 12.651 13.4619 12.9141 13.2916C13.1773 13.1214 13.3857 12.8988 13.5393 12.624C13.6928 12.3493 13.7695 12.0096 13.7695 11.605C13.7695 11.3117 13.7256 11.0546 13.6379 10.8337C13.5502 10.6129 13.4237 10.4165 13.2583 10.2446C13.093 10.0726 12.8947 9.9184 12.6636 9.78182C12.4325 9.64529 12.1718 9.51633 11.8816 9.39498C11.669 9.30727 11.4784 9.22219 11.3096 9.13957C11.141 9.05695 10.9975 8.9727 10.8795 8.88668C10.7613 8.80072 10.6702 8.70967 10.6061 8.61357C10.542 8.51748 10.51 8.40879 10.51 8.28738C10.51 8.17611 10.5386 8.07586 10.596 7.9865C10.6533 7.89715 10.7344 7.82045 10.839 7.75641C10.9436 7.69231 11.0718 7.64262 11.2236 7.60717C11.3754 7.57178 11.5442 7.55408 11.7298 7.55408C11.8648 7.55408 12.0073 7.56422 12.1574 7.58443C12.3076 7.60465 12.4586 7.63582 12.6105 7.67801C12.7623 7.72014 12.9099 7.77322 13.0533 7.83732C13.1967 7.90137 13.3292 7.97555 13.4507 8.0598V6.54768C13.2043 6.45328 12.9352 6.38332 12.6434 6.33779C12.3515 6.29227 12.0166 6.26953 11.6387 6.26953C11.254 6.26953 10.8896 6.31084 10.5454 6.39346C10.2012 6.47602 9.89836 6.60498 9.63686 6.78029C9.37535 6.95566 9.16869 7.17902 9.01682 7.45043C8.865 7.72184 8.78906 8.04633 8.78906 8.42396C8.78906 8.90607 8.92822 9.3174 9.20666 9.65795C9.48504 9.99844 9.90762 10.2867 10.4745 10.5227C10.6972 10.6138 10.9048 10.7031 11.0971 10.7908C11.2894 10.8785 11.4556 10.9695 11.5956 11.0638C11.7357 11.1582 11.8462 11.2611 11.9272 11.3723C12.0081 11.4836 12.0486 11.6101 12.0486 11.7517C12.0486 11.8562 12.0233 11.9531 11.9727 12.0425C11.9221 12.1318 11.8453 12.2094 11.7424 12.2751C11.6395 12.3408 11.5113 12.3922 11.3578 12.4293C11.2042 12.4664 11.0245 12.485 10.8187 12.485C10.4678 12.485 10.1203 12.4235 9.77607 12.3004C9.43184 12.1773 9.11297 11.9927 8.81941 11.7466ZM6.12199 7.71926H8.20312V6.38672H2.40234V7.71926H4.47332V13.6523H6.12199V7.71926Z"
      fill="white" />
  </g>
  <defs>
    <clipPath id="clip0_224_4">
      <rect width="15" height="15" fill="white" />
    </clipPath>
  </defs>
</svg>