<svg width="126" height="126" viewBox="0 0 126 126" fill="none" xmlns="http://www.w3.org/2000/svg">
<path d="M122.825 1.56352C124.819 3.03992 126 5.40217 126 7.88746V25.6043V90.5662C126 101.442 115.418 110.252 102.375 110.252C89.332 110.252 78.75 101.442 78.75 90.5662C78.75 79.69 89.332 70.8808 102.375 70.8808C105.131 70.8808 107.789 71.2745 110.25 72.0127V36.1853L47.25 55.0833V106.315C47.25 117.191 36.668 126 23.625 126C10.582 126 0 117.191 0 106.315C0 95.4384 10.582 86.6292 23.625 86.6292C26.3812 86.6292 29.0391 87.0229 31.5 87.7611V49.2268V31.51C31.5 28.0404 33.7887 24.9646 37.1109 23.9557L115.861 0.333177C118.248 -0.38042 120.832 0.0625023 122.825 1.56352Z" fill="#C173FF" fill-opacity="0.8"/>
</svg>
