<svg width="84" height="117" viewBox="0 0 84 117" fill="none" xmlns="http://www.w3.org/2000/svg">
<path d="M83.5 6.49998C83.5 12 83.5 18.4182 83.5 23.9183C83.5 29.4183 79.5 30.4183 76 31.4183L47.25 42V97.3129C47.25 108.189 36.668 116.998 23.625 116.998C10.582 116.998 0 108.189 0 97.3129C0 86.4367 10.582 77.6275 23.625 77.6275C26.3812 77.6275 29.0391 78.0212 31.5 78.7594V40.2253V22.5085C31.5 19.0389 33.7887 15.9631 37.1109 14.9542L76 0.999973C79.5 -5.53727e-05 83.5 0.999982 83.5 6.49998Z" fill="#C173FF" fill-opacity="0.8"/>
</svg>
