<svg width="15" height="19" viewBox="0 0 15 19" fill="none" xmlns="http://www.w3.org/2000/svg">
  <g clip-path="url(#clip0_224_13)">
    <path
      d="M14.0367 2.51185C12.37 -0.016111 9.05199 -0.756789 6.66667 0.837279L2.46177 3.67118C1.31498 4.42796 0.519878 5.66779 0.29052 7.06863C0.0917433 8.24406 0.259939 9.45168 0.795107 10.4983C0.428135 11.078 0.183486 11.722 0.0764528 12.3983C-0.168196 13.8313 0.152905 15.3127 0.948012 16.4881C2.62997 19.0161 5.93272 19.7568 8.31804 18.1627L12.5229 15.3449C13.6697 14.5881 14.4648 13.3483 14.6942 11.9474C14.893 10.772 14.7248 9.5644 14.1896 8.51779C14.5566 7.93813 14.8012 7.29406 14.9083 6.61779C15.1682 5.16863 14.8471 3.68728 14.0367 2.51185Z"
      fill="#FF3E00" />
    <path
      d="M6.25382 16.7297C4.89296 17.1 3.47094 16.5365 2.67584 15.3288C2.18654 14.6203 2.00305 13.7348 2.14067 12.8653C2.17125 12.7204 2.20183 12.5915 2.23241 12.4466L2.30886 12.189L2.52293 12.35C3.02752 12.7365 3.57798 13.0263 4.17431 13.2195L4.32721 13.2678L4.31192 13.4288C4.29663 13.6542 4.35779 13.8958 4.48012 14.089C4.72477 14.4593 5.1529 14.6365 5.56574 14.5237C5.65749 14.4915 5.74923 14.4593 5.82568 14.411L10.0153 11.5932C10.2294 11.4483 10.367 11.239 10.4128 10.9814C10.4587 10.7237 10.3975 10.45 10.2599 10.2407C10.0153 9.87035 9.58715 9.70933 9.17431 9.82205C9.08256 9.85425 8.99082 9.88645 8.91437 9.93476L7.30886 11.0136C7.04892 11.1907 6.7584 11.3195 6.45259 11.4C5.09174 11.7704 3.66972 11.2068 2.87461 9.99916C2.40061 9.29069 2.20183 8.4051 2.35474 7.53561C2.49235 6.69832 2.98165 5.94154 3.66972 5.49069L7.87461 2.67289C8.13455 2.49577 8.42507 2.36696 8.73088 2.27035C10.0917 1.90001 11.5138 2.46357 12.3089 3.6712C12.7982 4.37967 12.9816 5.26527 12.844 6.13476C12.8134 6.27967 12.7829 6.40849 12.737 6.5534L12.6605 6.81103L12.4465 6.65001C11.9419 6.26357 11.3914 5.97374 10.7951 5.78052L10.6422 5.73221L10.6575 5.5712C10.6728 5.34577 10.6116 5.10425 10.4893 4.91103C10.2446 4.54069 9.81651 4.37967 9.40366 4.49238C9.31192 4.52459 9.22018 4.55679 9.14373 4.6051L4.95412 7.42289C4.74006 7.56781 4.60244 7.77713 4.55657 8.03476C4.5107 8.29239 4.57186 8.56611 4.70948 8.77544C4.95412 9.14577 5.38226 9.30679 5.7951 9.19408C5.88685 9.16188 5.97859 9.12967 6.05504 9.08137L7.66054 8.00255C7.92048 7.82544 8.211 7.69662 8.51681 7.60001C9.87767 7.22967 11.2997 7.79323 12.0948 9.00086C12.5841 9.70933 12.7676 10.5949 12.63 11.4644C12.4923 12.3017 12.0031 13.0585 11.315 13.5093L7.11009 16.3271C6.85015 16.5042 6.55963 16.6331 6.25382 16.7297Z"
      fill="white" />
  </g>
  <defs>
    <clipPath id="clip0_224_13">
      <rect width="15" height="19" fill="white" />
    </clipPath>
  </defs>
</svg>