<svg width="14" height="16" viewBox="0 0 14 16" fill="none" xmlns="http://www.w3.org/2000/svg">
  <g clip-path="url(#clip0_224_7)">
    <path
      d="M9.76153 5.80932C9.76153 6.6483 9.08971 7.32842 8.26098 7.32842C7.43224 7.32842 6.76042 6.6483 6.76042 5.80932C6.76042 4.97035 7.43224 4.29022 8.26098 4.29022C9.08971 4.29022 9.76153 4.97035 9.76153 5.80932Z"
      fill="#FFC131" />
    <path
      d="M5.73732 8.64039C4.90858 8.64039 4.23676 9.32052 4.23676 10.1595C4.23676 10.9985 4.90858 11.6786 5.73732 11.6786C6.56605 11.6786 7.23787 10.9985 7.23787 10.1595C7.23787 9.32052 6.56605 8.64039 5.73732 8.64039Z"
      fill="#24C8DB" />
    <path
      d="M11.3712 10.6773C10.7681 11.072 10.0972 11.3484 9.39321 11.4921C9.59722 10.9033 9.66489 10.2749 9.59101 9.6554C11.2291 9.07568 12.3156 7.49823 12.2867 5.74175C12.2577 3.98526 11.1199 2.44537 9.46362 1.92126C7.80736 1.39715 6.00577 2.00688 4.99386 3.434C4.23036 3.52097 3.48739 3.74054 2.79759 4.08307C3.54703 1.63518 5.79451 -0.0246435 8.32587 0.000276825C10.8572 0.0251972 13.0724 1.72896 13.7747 4.19114C14.4769 6.65331 13.4998 9.29023 11.3712 10.6773ZM2.8658 5.13953L4.27086 5.31216C4.30273 5.03747 4.36215 4.76678 4.4482 4.50427C3.89243 4.63508 3.35908 4.84919 2.8658 5.13953Z"
      fill="#FFC131" />
    <path
      d="M2.62025 5.29142C3.22695 4.8927 3.90273 4.61389 4.6119 4.46973C4.39738 5.05846 4.32035 5.68947 4.38682 6.31336C2.75454 6.90123 1.67713 8.48072 1.71226 10.2343C1.74739 11.9878 2.88719 13.5218 4.54167 14.0421C6.19615 14.5625 7.99392 13.9525 9.00443 12.5279C9.76751 12.4431 10.5105 12.2258 11.2007 11.8857C10.4494 14.3309 8.20307 15.988 5.67367 15.9629C3.14428 15.9378 0.930459 14.2364 0.226677 11.7768C-0.477104 9.3171 0.495714 6.68127 2.62025 5.29142Z"
      fill="#24C8DB" />
  </g>
  <defs>
    <clipPath id="clip0_224_7">
      <rect width="14" height="16" fill="white" />
    </clipPath>
  </defs>
</svg>